<svg version="1.1" viewBox="0.0 0.0 255.56430446194227 292.7821522309711" fill="none" stroke="none" stroke-linecap="square" stroke-miterlimit="10" xmlns:xlink="http://www.w3.org/1999/xlink" xmlns="http://www.w3.org/2000/svg"><clipPath id="p.0"><path d="m0 0l255.5643 0l0 292.78217l-255.5643 0l0 -292.78217z" clip-rule="nonzero"/></clipPath><g clip-path="url(#p.0)"><path fill="#000000" fill-opacity="0.0" d="m0 0l255.5643 0l0 292.78217l-255.5643 0z" fill-rule="evenodd"/><path fill="#000000" fill-opacity="0.0" d="m72.0 33.417324l32.0 0l0 31.999996l-32.0 0z" fill-rule="evenodd"/><path fill="#000000" d="m82.32617 53.45732l2.21875 -0.1875q0.234375 1.609375 1.125 2.4375q0.90625 0.8125 2.171875 0.8125q1.53125 0 2.578125 -1.140625q1.0625 -1.15625 1.0625 -3.0625q0 -1.796875 -1.015625 -2.84375q-1.015625 -1.046875 -2.65625 -1.046875q-1.015625 0 -1.84375 0.46875q-0.8125 0.453125 -1.28125 1.203125l-1.984375 -0.265625l1.65625 -8.828125l8.546875 0l0 2.015625l-6.859375 0l-0.921875 4.625q1.546875 -1.078125 3.25 -1.078125q2.25 0 3.796875 1.5625q1.546875 1.546875 1.546875 4.0q0 2.328125 -1.359375 4.03125q-1.65625 2.09375 -4.515625 2.09375q-2.34375 0 -3.828125 -1.3125q-1.484375 -1.3125 -1.6875 -3.484375z" fill-rule="nonzero"/><path fill="#ffffff" d="m56.0 137.6693l24.077759 -24.000008l31.922241 0l-24.077759 24.000008z" fill-rule="evenodd"/><path stroke="#000000" stroke-width="1.0" stroke-linejoin="round" stroke-linecap="butt" d="m56.0 137.6693l24.077759 -24.000008l31.922241 0l-24.077759 24.000008z" fill-rule="evenodd"/><path fill="#ffffff" d="m88.0 137.6693l24.077759 -24.000008l31.922241 0l-24.077759 24.000008z" fill-rule="evenodd"/><path stroke="#000000" stroke-width="1.0" stroke-linejoin="round" stroke-linecap="butt" d="m88.0 137.6693l24.077759 -24.000008l31.922241 0l-24.077759 24.000008z" fill-rule="evenodd"/><path fill="#ffffff" d="m80.0 113.66929l24.077759 -24.0l31.922241 0l-24.077759 24.0z" fill-rule="evenodd"/><path stroke="#000000" stroke-width="1.0" stroke-linejoin="round" stroke-linecap="butt" d="m80.0 113.66929l24.077759 -24.0l31.922241 0l-24.077759 24.0z" fill-rule="evenodd"/><path fill="#ffffff" d="m112.0 113.66929l24.077759 -24.0l31.922241 0l-24.077759 24.0z" fill-rule="evenodd"/><path stroke="#000000" stroke-width="1.0" stroke-linejoin="round" stroke-linecap="butt" d="m112.0 113.66929l24.077759 -24.0l31.922241 0l-24.077759 24.0z" fill-rule="evenodd"/><path fill="#ffffff" d="m104.0 89.66929l24.077759 -24.0l31.922241 0l-24.077759 24.0z" fill-rule="evenodd"/><path stroke="#000000" stroke-width="1.0" stroke-linejoin="round" stroke-linecap="butt" d="m104.0 89.66929l24.077759 -24.0l31.922241 0l-24.077759 24.0z" fill-rule="evenodd"/><path fill="#ffffff" d="m136.0 89.66929l24.077759 -24.0l31.922241 0l-24.077759 24.0z" fill-rule="evenodd"/><path stroke="#000000" stroke-width="1.0" stroke-linejoin="round" stroke-linecap="butt" d="m136.0 89.66929l24.077759 -24.0l31.922241 0l-24.077759 24.0z" fill-rule="evenodd"/><path fill="#ffffff" d="m128.0 65.66929l24.077759 -23.999996l31.922241 0l-24.077759 23.999996z" fill-rule="evenodd"/><path stroke="#000000" stroke-width="1.0" stroke-linejoin="round" stroke-linecap="butt" d="m128.0 65.66929l24.077759 -23.999996l31.922241 0l-24.077759 23.999996z" fill-rule="evenodd"/><path fill="#ffffff" d="m160.0 65.66929l24.077759 -23.999996l31.922241 0l-24.077759 23.999996z" fill-rule="evenodd"/><path stroke="#000000" stroke-width="1.0" stroke-linejoin="round" stroke-linecap="butt" d="m160.0 65.66929l24.077759 -23.999996l31.922241 0l-24.077759 23.999996z" fill-rule="evenodd"/><path fill="#ffffff" d="m152.0 41.669292l24.077759 -24.000002l31.922241 0l-24.077759 24.000002z" fill-rule="evenodd"/><path stroke="#000000" stroke-width="1.0" stroke-linejoin="round" stroke-linecap="butt" d="m152.0 41.669292l24.077759 -24.000002l31.922241 0l-24.077759 24.000002z" fill-rule="evenodd"/><path fill="#ffffff" d="m184.0 41.669292l24.077759 -24.000002l31.922241 0l-24.077759 24.000002z" fill-rule="evenodd"/><path stroke="#000000" stroke-width="1.0" stroke-linejoin="round" stroke-linecap="butt" d="m184.0 41.669292l24.077759 -24.000002l31.922241 0l-24.077759 24.000002z" fill-rule="evenodd"/><path fill="#ffffff" d="m56.0 137.41733l32.0 0l0 32.0l-32.0 0z" fill-rule="evenodd"/><path stroke="#000000" stroke-width="1.0" stroke-linejoin="round" stroke-linecap="butt" d="m56.0 137.41733l32.0 0l0 32.0l-32.0 0z" fill-rule="evenodd"/><path fill="#ffffff" d="m88.0 137.41733l32.0 0l0 32.0l-32.0 0z" fill-rule="evenodd"/><path stroke="#000000" stroke-width="1.0" stroke-linejoin="round" stroke-linecap="butt" d="m88.0 137.41733l32.0 0l0 32.0l-32.0 0z" fill-rule="evenodd"/><path fill="#ffffff" d="m144.0 113.41732l-24.0 23.782082l0 32.217926l24.0 -23.78209z" fill-rule="evenodd"/><path stroke="#000000" stroke-width="1.0" stroke-linejoin="round" stroke-linecap="butt" d="m144.0 113.41732l-24.0 23.782082l0 32.217926l24.0 -23.78209z" fill-rule="evenodd"/><path fill="#ffffff" d="m168.0 89.41732l-24.0 23.782082l0 32.217926l24.0 -23.782082z" fill-rule="evenodd"/><path stroke="#000000" stroke-width="1.0" stroke-linejoin="round" stroke-linecap="butt" d="m168.0 89.41732l-24.0 23.782082l0 32.217926l24.0 -23.782082z" fill-rule="evenodd"/><path fill="#ffffff" d="m192.0 65.41732l-24.0 23.782082l0 32.21792l24.0 -23.782074z" fill-rule="evenodd"/><path stroke="#000000" stroke-width="1.0" stroke-linejoin="round" stroke-linecap="butt" d="m192.0 65.41732l-24.0 23.782082l0 32.21792l24.0 -23.782074z" fill-rule="evenodd"/><path fill="#ffffff" d="m216.0 41.417324l-24.0 23.782078l0 32.21792l24.0 -23.782074z" fill-rule="evenodd"/><path stroke="#000000" stroke-width="1.0" stroke-linejoin="round" stroke-linecap="butt" d="m216.0 41.417324l-24.0 23.782078l0 32.21792l24.0 -23.782074z" fill-rule="evenodd"/><path fill="#ffffff" d="m240.0 17.417322l-24.0 23.78208l0 32.21792l24.0 -23.782078z" fill-rule="evenodd"/><path stroke="#000000" stroke-width="1.0" stroke-linejoin="round" stroke-linecap="butt" d="m240.0 17.417322l-24.0 23.78208l0 32.21792l24.0 -23.782078z" fill-rule="evenodd"/><path fill="#ffffff" d="m56.0 169.41733l32.0 0l0 32.0l-32.0 0z" fill-rule="evenodd"/><path stroke="#000000" stroke-width="1.0" stroke-linejoin="round" stroke-linecap="butt" d="m56.0 169.41733l32.0 0l0 32.0l-32.0 0z" fill-rule="evenodd"/><path fill="#ffffff" d="m88.0 169.41733l32.0 0l0 32.0l-32.0 0z" fill-rule="evenodd"/><path stroke="#000000" stroke-width="1.0" stroke-linejoin="round" stroke-linecap="butt" d="m88.0 169.41733l32.0 0l0 32.0l-32.0 0z" fill-rule="evenodd"/><path fill="#ffffff" d="m144.0 145.41733l-24.0 23.782074l0 32.217926l24.0 -23.78209z" fill-rule="evenodd"/><path stroke="#000000" stroke-width="1.0" stroke-linejoin="round" stroke-linecap="butt" d="m144.0 145.41733l-24.0 23.782074l0 32.217926l24.0 -23.78209z" fill-rule="evenodd"/><path fill="#ffffff" d="m168.0 121.41732l-24.0 23.782082l0 32.217926l24.0 -23.78209z" fill-rule="evenodd"/><path stroke="#000000" stroke-width="1.0" stroke-linejoin="round" stroke-linecap="butt" d="m168.0 121.41732l-24.0 23.782082l0 32.217926l24.0 -23.78209z" fill-rule="evenodd"/><path fill="#ffffff" d="m192.0 97.41732l-24.0 23.782082l0 32.217926l24.0 -23.78209z" fill-rule="evenodd"/><path stroke="#000000" stroke-width="1.0" stroke-linejoin="round" stroke-linecap="butt" d="m192.0 97.41732l-24.0 23.782082l0 32.217926l24.0 -23.78209z" fill-rule="evenodd"/><path fill="#ffffff" d="m216.0 73.41732l-24.0 23.782082l0 32.217926l24.0 -23.782082z" fill-rule="evenodd"/><path stroke="#000000" stroke-width="1.0" stroke-linejoin="round" stroke-linecap="butt" d="m216.0 73.41732l-24.0 23.782082l0 32.217926l24.0 -23.782082z" fill-rule="evenodd"/><path fill="#ffffff" d="m240.0 49.417324l-24.0 23.782078l0 32.21792l24.0 -23.782074z" fill-rule="evenodd"/><path stroke="#000000" stroke-width="1.0" stroke-linejoin="round" stroke-linecap="butt" d="m240.0 49.417324l-24.0 23.782078l0 32.21792l24.0 -23.782074z" fill-rule="evenodd"/><path fill="#ffffff" d="m56.0 201.41733l32.0 0l0 32.0l-32.0 0z" fill-rule="evenodd"/><path stroke="#000000" stroke-width="1.0" stroke-linejoin="round" stroke-linecap="butt" d="m56.0 201.41733l32.0 0l0 32.0l-32.0 0z" fill-rule="evenodd"/><path fill="#ffffff" d="m88.0 201.41733l32.0 0l0 32.0l-32.0 0z" fill-rule="evenodd"/><path stroke="#000000" stroke-width="1.0" stroke-linejoin="round" stroke-linecap="butt" d="m88.0 201.41733l32.0 0l0 32.0l-32.0 0z" fill-rule="evenodd"/><path fill="#ffffff" d="m144.0 177.41733l-24.0 23.782074l0 32.217926l24.0 -23.78209z" fill-rule="evenodd"/><path stroke="#000000" stroke-width="1.0" stroke-linejoin="round" stroke-linecap="butt" d="m144.0 177.41733l-24.0 23.782074l0 32.217926l24.0 -23.78209z" fill-rule="evenodd"/><path fill="#ffffff" d="m168.0 153.41733l-24.0 23.782074l0 32.217926l24.0 -23.78209z" fill-rule="evenodd"/><path stroke="#000000" stroke-width="1.0" stroke-linejoin="round" stroke-linecap="butt" d="m168.0 153.41733l-24.0 23.782074l0 32.217926l24.0 -23.78209z" fill-rule="evenodd"/><path fill="#ffffff" d="m192.0 129.41733l-24.0 23.782074l0 32.217926l24.0 -23.78209z" fill-rule="evenodd"/><path stroke="#000000" stroke-width="1.0" stroke-linejoin="round" stroke-linecap="butt" d="m192.0 129.41733l-24.0 23.782074l0 32.217926l24.0 -23.78209z" fill-rule="evenodd"/><path fill="#ffffff" d="m216.0 105.41732l-24.0 23.782082l0 32.217926l24.0 -23.78209z" fill-rule="evenodd"/><path stroke="#000000" stroke-width="1.0" stroke-linejoin="round" stroke-linecap="butt" d="m216.0 105.41732l-24.0 23.782082l0 32.217926l24.0 -23.78209z" fill-rule="evenodd"/><path fill="#ffffff" d="m240.0 81.41732l-24.0 23.782082l0 32.217926l24.0 -23.782082z" fill-rule="evenodd"/><path stroke="#000000" stroke-width="1.0" stroke-linejoin="round" stroke-linecap="butt" d="m240.0 81.41732l-24.0 23.782082l0 32.217926l24.0 -23.782082z" fill-rule="evenodd"/><path fill="#000000" fill-opacity="0.0" d="m47.33858 233.41733c-4.23563 0 -7.6692886 -3.43367 -7.6692886 -7.6692963l0 -32.661423c0 -4.235626 -3.4336586 -7.669281 -7.6692924 -7.669281l0 0c4.235634 0 7.6692924 -3.43367 7.6692924 -7.6692963l0 -32.661423l0 0c0 -4.235626 3.4336586 -7.669281 7.6692886 -7.669281z" fill-rule="evenodd"/><path fill="#000000" fill-opacity="0.0" d="m47.33858 233.41733c-4.23563 0 -7.6692886 -3.43367 -7.6692886 -7.6692963l0 -32.661423c0 -4.235626 -3.4336586 -7.669281 -7.6692924 -7.669281l0 0c4.235634 0 7.6692924 -3.43367 7.6692924 -7.6692963l0 -32.661423l0 0c0 -4.235626 3.4336586 -7.669281 7.6692886 -7.669281" fill-rule="evenodd"/><path stroke="#000000" stroke-width="1.0" stroke-linejoin="round" stroke-linecap="butt" d="m47.33858 233.41733c-4.23563 0 -7.6692886 -3.43367 -7.6692886 -7.6692963l0 -32.661423c0 -4.235626 -3.4336586 -7.669281 -7.6692924 -7.669281l0 0c4.235634 0 7.6692924 -3.43367 7.6692924 -7.6692963l0 -32.661423l0 0c0 -4.235626 3.4336586 -7.669281 7.6692886 -7.669281" fill-rule="evenodd"/><path fill="#000000" fill-opacity="0.0" d="m120.0 241.41733c0 4.418274 -3.5817184 8.0 -8.0 8.0l-16.0 0c-4.4182816 0 -8.0 3.5817108 -8.0 8.0l0 0c0 -4.418289 -3.5817184 -8.0 -8.0 -8.0l-16.0 0l0 0c-4.4182777 0 -8.0 -3.581726 -8.0 -8.0z" fill-rule="evenodd"/><path fill="#000000" fill-opacity="0.0" d="m120.0 241.41733c0 4.418274 -3.5817184 8.0 -8.0 8.0l-16.0 0c-4.4182816 0 -8.0 3.5817108 -8.0 8.0l0 0c0 -4.418289 -3.5817184 -8.0 -8.0 -8.0l-16.0 0l0 0c-4.4182777 0 -8.0 -3.581726 -8.0 -8.0" fill-rule="evenodd"/><path stroke="#000000" stroke-width="1.0" stroke-linejoin="round" stroke-linecap="butt" d="m120.0 241.41733c0 4.418274 -3.5817184 8.0 -8.0 8.0l-16.0 0c-4.4182816 0 -8.0 3.5817108 -8.0 8.0l0 0c0 -4.418289 -3.5817184 -8.0 -8.0 -8.0l-16.0 0l0 0c-4.4182777 0 -8.0 -3.581726 -8.0 -8.0" fill-rule="evenodd"/><path fill="#000000" fill-opacity="0.0" d="m50.834644 129.41733c-2.9919052 -2.9919128 -2.9919052 -7.842743 0 -10.834648l48.45669 -48.456696c2.9919052 -2.9919052 2.9919052 -7.842739 0 -10.834644l0 0c2.9919052 2.9919052 7.842743 2.9919052 10.834648 0l48.456688 -48.456696l0 0c2.9919128 -2.9919043 7.842743 -2.9919043 10.834656 0z" fill-rule="evenodd"/><path fill="#000000" fill-opacity="0.0" d="m50.834644 129.41733c-2.9919052 -2.9919128 -2.9919052 -7.842743 0 -10.834648l48.45669 -48.456696c2.9919052 -2.9919052 2.9919052 -7.842739 0 -10.834644l0 0c2.9919052 2.9919052 7.842743 2.9919052 10.834648 0l48.456688 -48.456696l0 0c2.9919128 -2.9919043 7.842743 -2.9919043 10.834656 0" fill-rule="evenodd"/><path stroke="#000000" stroke-width="1.0" stroke-linejoin="round" stroke-linecap="butt" d="m50.834644 129.41733c-2.9919052 -2.9919128 -2.9919052 -7.842743 0 -10.834648l48.45669 -48.456696c2.9919052 -2.9919052 2.9919052 -7.842739 0 -10.834644l0 0c2.9919052 2.9919052 7.842743 2.9919052 10.834648 0l48.456688 -48.456696l0 0c2.9919128 -2.9919043 7.842743 -2.9919043 10.834656 0" fill-rule="evenodd"/><path fill="#000000" fill-opacity="0.0" d="m0 169.41733l32.0 0l0 32.0l-32.0 0z" fill-rule="evenodd"/><path fill="#000000" d="m10.341797 189.42607l2.109375 -0.28125q0.359375 1.78125 1.234375 2.578125q0.875 0.796875 2.125 0.796875q1.484375 0 2.5 -1.03125q1.03125 -1.03125 1.03125 -2.5625q0 -1.453125 -0.953125 -2.390625q-0.9375 -0.953125 -2.40625 -0.953125q-0.59375 0 -1.484375 0.234375l0.234375 -1.84375q0.203125 0.015625 0.34375 0.015625q1.34375 0 2.421875 -0.703125q1.078125 -0.703125 1.078125 -2.15625q0 -1.171875 -0.796875 -1.921875q-0.78125 -0.765625 -2.015625 -0.765625q-1.234375 0 -2.0625 0.78125q-0.8125 0.765625 -1.046875 2.3125l-2.109375 -0.375q0.390625 -2.125 1.75 -3.28125q1.375 -1.171875 3.421875 -1.171875q1.40625 0 2.578125 0.609375q1.1875 0.59375 1.8125 1.640625q0.640625 1.046875 0.640625 2.21875q0 1.109375 -0.609375 2.03125q-0.59375 0.90625 -1.765625 1.4375q1.53125 0.359375 2.375 1.46875q0.84375 1.109375 0.84375 2.765625q0 2.25 -1.640625 3.828125q-1.640625 1.5625 -4.15625 1.5625q-2.265625 0 -3.765625 -1.34375q-1.484375 -1.359375 -1.6875 -3.5z" fill-rule="nonzero"/><path fill="#000000" fill-opacity="0.0" d="m72.0 257.41733l32.0 0l0 32.0l-32.0 0z" fill-rule="evenodd"/><path fill="#000000" d="m93.4043 279.9261l0 2.03125l-11.34375 0q-0.03125 -0.765625 0.234375 -1.46875q0.4375 -1.15625 1.390625 -2.28125q0.953125 -1.125 2.765625 -2.609375q2.796875 -2.296875 3.78125 -3.625q0.984375 -1.34375 0.984375 -2.546875q0 -1.25 -0.90625 -2.109375q-0.890625 -0.859375 -2.328125 -0.859375q-1.515625 0 -2.4375 0.921875q-0.90625 0.90625 -0.921875 2.515625l-2.171875 -0.21875q0.21875 -2.421875 1.671875 -3.6875q1.453125 -1.28125 3.90625 -1.28125q2.46875 0 3.90625 1.375q1.453125 1.359375 1.453125 3.390625q0 1.03125 -0.421875 2.03125q-0.421875 1.0 -1.40625 2.109375q-0.96875 1.09375 -3.25 3.015625q-1.890625 1.59375 -2.4375 2.15625q-0.53125 0.5625 -0.890625 1.140625l8.421875 0z" fill-rule="nonzero"/></g></svg>